<svg width="44" height="44" viewBox="0 0 44 44" fill="none" xmlns="http://www.w3.org/2000/svg">
<path d="M44 22C44 9.84974 34.1503 0 22 0C9.84974 0 0 9.84974 0 22C0 34.1503 9.84974 44 22 44C34.1503 44 44 34.1503 44 22Z" fill="white" fill-opacity="0.75"/>
<path d="M12.9499 22.9999H29.1322L23.2099 30.7849C23.1742 30.8318 23.1459 30.8876 23.1266 30.9489C23.1073 31.0102 23.0973 31.076 23.0973 31.1424C23.0973 31.2088 23.1073 31.2745 23.1266 31.3358C23.1459 31.3972 23.1742 31.4529 23.2099 31.4999C23.2456 31.5468 23.2879 31.5841 23.3345 31.6095C23.3811 31.6349 23.4311 31.6479 23.4816 31.6479C23.532 31.6479 23.582 31.6349 23.6286 31.6095C23.6752 31.5841 23.7176 31.5468 23.7533 31.4999L30.3178 22.8549C30.3357 22.8314 30.3517 22.8054 30.3653 22.7774C30.3717 22.7654 30.3774 22.7529 30.3824 22.7399L30.4014 22.6899L30.4128 22.6399C30.4139 22.6257 30.4139 22.6115 30.4128 22.5974C30.4225 22.533 30.4225 22.4667 30.4128 22.4024C30.4139 22.3882 30.4139 22.374 30.4128 22.3599L30.4014 22.3099L30.3824 22.2599C30.3774 22.2468 30.3717 22.2343 30.3653 22.2224C30.3517 22.1943 30.3357 22.1683 30.3178 22.1449L23.7533 13.4999C23.7179 13.4522 23.6756 13.4144 23.629 13.3886C23.5823 13.3627 23.5322 13.3494 23.4816 13.3494C23.431 13.3494 23.3808 13.3627 23.3342 13.3886C23.2875 13.4144 23.2453 13.4522 23.2099 13.4999C23.1745 13.5463 23.1465 13.6014 23.1274 13.6621C23.1083 13.7228 23.0984 13.7879 23.0984 13.8536C23.0984 13.9193 23.1083 13.9844 23.1274 14.0451C23.1465 14.1058 23.1745 14.1609 23.2099 14.2074L29.1322 21.9999H12.9499C12.8491 21.9999 12.7524 22.0525 12.6812 22.1463C12.6099 22.2401 12.5699 22.3673 12.5699 22.4999C12.5699 22.6325 12.6099 22.7597 12.6812 22.8534C12.7524 22.9472 12.8491 22.9999 12.9499 22.9999Z" fill="black"/>
</svg>
